<svg xmlns="http://www.w3.org/2000/svg" xmlns:xlink="http://www.w3.org/1999/xlink" viewBox="0 0 64 64" width="65" height="65"><g><circle cx="32" cy="32" r="31" fill="#dd4b39"></circle></g><g><path d="M25.3,30.1v3.8h6.3c-0.3,1.6-1.9,4.8-6.3,4.8c-3.8,0-6.9-3.1-6.9-7s3.1-7,6.9-7c2.2,0,3.6,0.9,4.4,1.7l3-2.9c-1.9-1.8-4.4-2.9-7.4-2.9c-6.1,0-11.1,5-11.1,11.1s5,11.1,11.1,11.1c6.4,0,10.7-4.5,10.7-10.9c0-0.7-0.1-1.3-0.2-1.8H25.3L25.3,30.1z M49.8,28.9h-3.2v-3.2h-3.2v3.2h-3.2v3.2h3.2v3.2h3.2v-3.2h3.2" fill="white"></path></g></svg>
